<svg width="112" height="42" viewBox="0 0 112 42" fill="none" xmlns="http://www.w3.org/2000/svg">
<rect width="48" height="42" rx="10" fill="#4986BD"/>
<path d="M12.588 27.22H20.742V31H7.35V27.49L15.45 15.826H7.35V12.046H20.742V15.556L12.588 27.22ZM40.174 12.046V31H35.557V23.197H28.375V31H23.758V12.046H28.375V19.471H35.557V12.046H40.174Z" fill="#303030"/>
<path d="M58.775 12.046C60.773 12.046 62.519 12.442 64.013 13.234C65.507 14.026 66.659 15.142 67.469 16.582C68.297 18.004 68.711 19.651 68.711 21.523C68.711 23.377 68.297 25.024 67.469 26.464C66.659 27.904 65.498 29.02 63.986 29.812C62.492 30.604 60.755 31 58.775 31H51.674V12.046H58.775ZM58.478 27.004C60.224 27.004 61.583 26.527 62.555 25.573C63.527 24.619 64.013 23.269 64.013 21.523C64.013 19.777 63.527 18.418 62.555 17.446C61.583 16.474 60.224 15.988 58.478 15.988H56.291V27.004H58.478ZM75.9082 15.745V19.579H82.0912V23.143H75.9082V27.301H82.9012V31H71.2912V12.046H82.9012V15.745H75.9082ZM103.692 12.046L96.9686 31H91.1906L84.4676 12.046H89.3816L94.0796 26.356L98.8046 12.046H103.692ZM107.781 31.216C106.971 31.216 106.305 30.982 105.783 30.514C105.279 30.028 105.027 29.434 105.027 28.732C105.027 28.012 105.279 27.409 105.783 26.923C106.305 26.437 106.971 26.194 107.781 26.194C108.573 26.194 109.221 26.437 109.725 26.923C110.247 27.409 110.508 28.012 110.508 28.732C110.508 29.434 110.247 30.028 109.725 30.514C109.221 30.982 108.573 31.216 107.781 31.216Z" fill="white"/>
</svg>
